<svg id="Layer_1" data-name="Layer 1" xmlns="http://www.w3.org/2000/svg" viewBox="0 0 260 180"><defs><style>.cls-1{fill:#2563eb ;}.cls-2{fill:#231f20;}</style></defs><title>1-analyst</title><path class="cls-1" d="M127.06,33h1.3c.42,0,.83.06,1-.51.06-.24.38-.25.62-.29a9.18,9.18,0,0,1,4.72.68,13.2,13.2,0,0,1,5,2.82,7.84,7.84,0,0,1,2.26,5.2,10.1,10.1,0,0,1-1,5.77c-.13.25-.2.58-.55.59s-.32-.34-.41-.58a1.77,1.77,0,0,0-2.2-.81A2.6,2.6,0,0,0,136.52,47a3.3,3.3,0,0,1-.31.51c-.18.22-.38.46-.71.34a.65.65,0,0,1-.4-.7,5.34,5.34,0,0,0-1.71-3.92,2.16,2.16,0,0,0-1.18-.67,33.64,33.64,0,0,1-3.87-1.5c-.3-.12-.47-.38-.79-.52-1.36-.6-2.39.08-3.47.66-.5.27-1,.56-1.48.87a3.21,3.21,0,0,1-3.28,0,2.9,2.9,0,0,1-1.51-3.73,6.87,6.87,0,0,1,3.43-3.85A10.34,10.34,0,0,1,127.06,33Zm-.55,1.28c0-.18-.19-.22-.34-.26a2,2,0,0,0-.91.07,6.52,6.52,0,0,0-2.45.89c-.22.15-.42.38-.28.67a.45.45,0,0,0,.63.19c1-.41,2.07-.84,3.1-1.27A.36.36,0,0,0,126.51,34.25Z"/><path class="cls-1" d="M125.6,151.58a8.11,8.11,0,0,1-1.19,4A31,31,0,0,1,119,162.7a6.76,6.76,0,0,1-2.35,1.56c-.85.33-1.3-.08-1.31-1a10.71,10.71,0,0,1,1.23-4.47c1-2.15,1.92-4.3,2.9-6.44a4,4,0,0,1,2.45-2.34,1.25,1.25,0,0,0,.64-.54c.27-.38.55-.74.84-1.1s.39-.55.75-.45.28.48.28.78a1.17,1.17,0,0,0,.36.95A2.39,2.39,0,0,1,125.6,151.58Z"/><path class="cls-1" d="M81.23,147.87c-.44,0-.77,0-1-.2a.58.58,0,0,1-.07-.93,13.58,13.58,0,0,0,1.68-2.25,13,13,0,0,1,2.72-2.29,24.23,24.23,0,0,1,2.74-1.72A12.57,12.57,0,0,0,89.4,139a6.46,6.46,0,0,1,3-1.55,6.74,6.74,0,0,0,2.17-.55.87.87,0,0,1,1.18,1.1,8.1,8.1,0,0,0-.24,2.34,2.29,2.29,0,0,1-1,1.8,32.34,32.34,0,0,1-12.7,5.61A5.18,5.18,0,0,1,81.23,147.87Z"/><path class="cls-1" d="M162.35,35.08a5.7,5.7,0,0,1,2.37.41A19.21,19.21,0,0,1,172.83,42c.28.39.48.84.73,1.25s.16.91-.42,1a8.68,8.68,0,0,1-1.44.15c-2.09,0-4.18.15-6.26.35a1,1,0,0,1-1.19-.82c-.24-.79-.49-1.59-.72-2.4a50.58,50.58,0,0,0-1.86-4.94C161.17,35.29,161.31,35.08,162.35,35.08Z"/><path class="cls-1" d="M188,93.27A3.94,3.94,0,0,1,184.25,91a2.11,2.11,0,0,1,0-1.85,30.68,30.68,0,0,1,3.33-5.52,1.1,1.1,0,0,1,.44-.39,1.48,1.48,0,0,0,.87-1c.13-.41.36-.82.9-.64s.53.63.42,1.09c0,.13-.08.25-.12.38s.06.33.24.41.28,0,.37-.16a7.57,7.57,0,0,1,.44-.66.66.66,0,0,1,1-.13.68.68,0,0,1,.13,1s0,0,0,.06c-.17.35-.76.47-.62.93s.43.59.65.9A2.33,2.33,0,0,1,191,89c-.48.18-.53.28-.29.75a2.56,2.56,0,0,1-2.3,3.52C188.28,93.28,188.12,93.27,188,93.27Z"/><path class="cls-1" d="M84.14,46.76A1.83,1.83,0,0,1,82.48,46,29.72,29.72,0,0,1,78.9,40.6a1,1,0,0,1-.14-.51,1.53,1.53,0,0,0-.59-1.31.71.71,0,0,1-.11-1.06c.38-.39.76-.2,1.11.09a1.85,1.85,0,0,1,.28.28c.16.21.32.18.51,0s.12-.33,0-.5-.25-.37-.35-.57a.65.65,0,0,1,.26-1,.58.58,0,0,1,.88.3c.25,1.08.88,1,1.75.84,1.76-.27,2.87.93,2.71,2.74,0,.28-.06.43.34.43a2.46,2.46,0,0,1,2.51,3.07A4,4,0,0,1,84.14,46.76Z"/><path class="cls-1" d="M160.32,100.76c0-.46.21-.65.6-.57a3.22,3.22,0,0,1,1.19.54l3.11,2.12a7.17,7.17,0,0,0,1,.52c.74.34.88.7.35,1.3a25.38,25.38,0,0,0-2.62,4c-.19.34-.37.69-.56,1-.09.18-.19.37-.43.35s-.31-.25-.38-.47c-.67-2-.77-4.1-1.44-6.08-.23-.71-.43-1.43-.65-2.15Z"/><path class="cls-2" d="M137.06,63.36a.14.14,0,0,0-.2.12A1.7,1.7,0,0,1,135.8,65a8.54,8.54,0,0,1-7,.52,4.73,4.73,0,0,1-1.54-1c-1.12-1.07-1.54-1.9-.83-3.45a.14.14,0,0,0-.15-.19,26.86,26.86,0,0,0-3,.7A38,38,0,0,0,109.67,69a1.11,1.11,0,0,0-.34.71,10.41,10.41,0,0,0,.76,4A16.82,16.82,0,0,0,113,79.35c.26.3.58.56.9.86a.14.14,0,0,0,.17,0c1-.76,1.94-1.48,2.87-2.23a1.32,1.32,0,0,0,.32-.62,31.74,31.74,0,0,1,3.31-7,5.21,5.21,0,0,1,.48-.59.13.13,0,0,1,.23.08.16.16,0,0,1,0,.07,58.41,58.41,0,0,0-3.78,10.65,38.27,38.27,0,0,1-6,12.88c-.67.88-1.48,1.67-2.24,2.51a.13.13,0,0,0,0,.2,7.13,7.13,0,0,0,3.16,1.32q4.95,1,9.92,1.75c3.6.57,7.25.83,10.74,2a11.72,11.72,0,0,1,4.23,2.37,4.54,4.54,0,0,1,1.07,1.39c.27.58,0,1-.56,1a.15.15,0,0,1-.14-.12l0-.27a.2.2,0,0,0-.4,0,10.47,10.47,0,0,1-.41,1.38c-.56,1.33-1.14,2.66-1.8,3.94-1.85,3.55-3.93,7-5.19,10.79A40.39,40.39,0,0,0,128,133.39q-.17,6.35-.27,12.68c0,1.64-.38,3.06-2,3.83a.13.13,0,0,0-.08.15c.15.62.32,1.19.41,1.77a3.73,3.73,0,0,1,0,1.29,11.78,11.78,0,0,1-1.83,4.07,31.84,31.84,0,0,1-5.65,6.6,6.05,6.05,0,0,1-1.78,1.09A1.2,1.2,0,0,1,115,164a5.74,5.74,0,0,1,.21-3.18,27.47,27.47,0,0,1,4.19-8.68l.41-.58c0-.06-.06-.11-.09-.11-2.35-.29-2.46-.68-2.7-3.12a217.24,217.24,0,0,1-1-23.94,34.76,34.76,0,0,1,2.27-10.77c.58-1.71,1.22-3.4,1.88-5.23a.13.13,0,0,0-.12-.18,3.51,3.51,0,0,0-1.13,0c-4.64,1.38-8.4,4.29-12.33,7-2.52,1.71-3.48,4.13-4.2,6.81a140.56,140.56,0,0,0-3.18,14v.07c-.32,2.15-.54,2.4-2.67,2.89a1,1,0,0,0-.74,1.09,3.08,3.08,0,0,1-1.48,2.84,21.63,21.63,0,0,1-6.59,3.69c-1.8.62-3.66,1.08-5.51,1.56a4.21,4.21,0,0,1-1.33.07,1,1,0,0,1-.81-1.62,7.68,7.68,0,0,1,.6-.78,47,47,0,0,1,8.43-7.31.13.13,0,0,0,0-.21l-1.58-1.17a.88.88,0,0,1-.33-1.05c2.24-7.18,3.64-14.6,6.42-21.62a14.41,14.41,0,0,1,3-4.46,68.11,68.11,0,0,1,10.76-9.74c1.08-.76,2.24-1.39,3.38-2.08a.13.13,0,0,0,0-.23c-.48-.22-1-.43-1.46-.69a3.23,3.23,0,0,1-.87-.69c-.3-.32-.24-.56.11-.93A24,24,0,0,0,110.62,93a38.83,38.83,0,0,0,5.44-11.64c.19-.61.37-1.23.57-1.9a.14.14,0,0,0-.21-.15c-.64.48-1.21.93-1.81,1.34-.88.61-1.13.58-1.87-.17a6.74,6.74,0,0,1-.82-1c-.25-.39-.49-.36-.87-.2-1.64.73-3.3,1.42-4.93,2.16a5.76,5.76,0,0,1-4.43-.14,69.12,69.12,0,0,1-10.28-4.43c-.5-.27-1-.48-1.55-.73a3.88,3.88,0,0,1-.47-.32.12.12,0,0,1,0-.15h0a.14.14,0,0,1,.12-.1,1.46,1.46,0,0,1,.47,0,5.34,5.34,0,0,1,1.17.45,73.87,73.87,0,0,0,10,4.24,14.81,14.81,0,0,0,2.57.76,3.77,3.77,0,0,0,1.73-.17c1.67-.55,3.31-1.18,4.95-1.8a4.93,4.93,0,0,0,.72-.39.13.13,0,0,0,.05-.16L109,73.3a.12.12,0,0,0-.17-.07c-.88.36-1.83.73-2.76,1.16a5.73,5.73,0,0,1-4.25.15L93.88,72c-1.21-.38-2.43-.74-3.64-1.11a.13.13,0,0,1-.09-.15h0a.13.13,0,0,1,.15-.09c1.63.37,3.28.69,4.9,1.14,2.43.68,4.83,1.47,7.24,2.21a3.93,3.93,0,0,0,3-.16c1-.45,2-.82,2.93-1.19.37-.13.48-.3.36-.68a4.63,4.63,0,0,1-.18-.9,3.22,3.22,0,0,1,1.32-3.29,40.41,40.41,0,0,1,14.75-7.23,12.77,12.77,0,0,1,1.74-.24,1.9,1.9,0,0,1,.63,0c.38.11.8.22.73.72,0,.07-.44.08-.78.13a.12.12,0,0,0-.1.07,2.53,2.53,0,0,0,.93,3,5.89,5.89,0,0,0,4.42,1.13,11.35,11.35,0,0,0,2.49-.62,2.27,2.27,0,0,0,1.71-1.73c.08-.46.31-.54.69-.35,2,1,4.06,2,6,3.1a4.24,4.24,0,0,1,1.25,1.34A24.38,24.38,0,0,1,148,76.43a30.88,30.88,0,0,1,.4,9,2.06,2.06,0,0,1,0,.26c-.28,1.75-.81,2.18-2.56,1.81-1-.23-1.75-.27-2.24.92-.23.53-.93.9-1.48,1.24a9.29,9.29,0,0,1-1.48.65.12.12,0,0,0-.08.14,21.42,21.42,0,0,1,.32,2.47c0,2.42.13,4.85,0,7.26a36.56,36.56,0,0,1-.9,5.17,3.33,3.33,0,0,1-.71,1.32,1.29,1.29,0,0,1-1.71.3.14.14,0,0,1,0-.25c1.88-.7,1.73-2.54,2-4.06A62.14,62.14,0,0,0,140,92.45c0-.57.06-1.13.1-1.71a.13.13,0,0,0-.17-.13c-1.3.37-2.63.78-4,1.13A38.37,38.37,0,0,1,127.84,93a3.34,3.34,0,0,0-2.16.84A6.42,6.42,0,0,1,121,95.53a4.48,4.48,0,0,1-2.65-1c-.49-.37-.56-.61-.44-1.09a.13.13,0,0,0,0-.12,6.11,6.11,0,0,1-1-1.37,5.49,5.49,0,0,1-.26-1.85c0-.19.37-.56.49-.53.89.21,1.34-.38,1.82-.9a3.89,3.89,0,0,1,4.53-1c.65.26,1.29.57,2,.8a1,1,0,0,0,.74,0,62.67,62.67,0,0,1,10.29-4.22l.1-.06s0-.1-.05-.11a2,2,0,0,1-1.13-2.14,25.86,25.86,0,0,1,.94-7.43,6.58,6.58,0,0,1,.42-1.1A1,1,0,0,1,137,73a.14.14,0,0,1,.21.08.91.91,0,0,1,0,.4c-.21,1.12-.53,2.22-.67,3.35-.2,1.75-.3,3.51-.4,5.26a.75.75,0,0,0,.37.6,45.69,45.69,0,0,0,8.78,3.61,1.59,1.59,0,0,0,.3.06c1.76.25,1.67.43,1.81-1.07A28.29,28.29,0,0,0,144,68.44a6.81,6.81,0,0,0-2.14-2.2C140.39,65.21,138.76,64.35,137.06,63.36ZM118.14,92.05a.19.19,0,0,0-.14.35l1.25,1a.22.22,0,0,1-.17.39l-.21,0a.23.23,0,0,0-.18.42l0,0a5.32,5.32,0,0,0,6-.19,7.08,7.08,0,0,1,1.88-1.17,27.2,27.2,0,0,1,3.81-.71,51.19,51.19,0,0,0,10.75-2.78,4.35,4.35,0,0,0,2.44-2.12.14.14,0,0,0-.06-.18l-.17-.08c-1.86-.77-3.73-1.52-5.58-2.31a1.21,1.21,0,0,0-1.05,0c-3.19,1.36-6.4,2.67-9.58,4.05a3,3,0,0,1-3.11-.14,3.84,3.84,0,0,0-4.35,0c-.4.24-.68.5-.63,1a.12.12,0,0,0,.12.12l.78.08a.26.26,0,0,1,.06.5c-.86.31-1.78-.07-2.84-.18a.14.14,0,0,0-.12.22l1.22,1.57a.13.13,0,0,1-.13.21Zm6.73,58.61a.13.13,0,0,0-.13,0l-3.71.8a.71.71,0,0,0-.4.25,33.17,33.17,0,0,0-4.49,8.91,12.32,12.32,0,0,0-.45,2.78c0,.75.39,1,1.06.66a4.93,4.93,0,0,0,1.25-.85c1.31-1.3,2.64-2.59,3.83-4a16.94,16.94,0,0,0,3.35-5.63A2.88,2.88,0,0,0,124.87,150.66ZM80.5,147.28a.14.14,0,0,0,.11.2,3.83,3.83,0,0,0,.77,0c1.33-.26,2.68-.46,4-.82a23.64,23.64,0,0,0,8.37-4.19c1-.8,1.69-1.72,1.25-3.11a.13.13,0,0,0-.12-.1h-.21a11.25,11.25,0,0,1-4.24-.4.68.68,0,0,0-.48.08,35.4,35.4,0,0,0-9,7.6A4.47,4.47,0,0,0,80.5,147.28Z"/><path class="cls-2" d="M136.73,50.24a1.37,1.37,0,0,0,1.9-.32,3,3,0,0,0,.63-2.78,1.11,1.11,0,0,0-1.72-.68.8.8,0,0,1-.23.11,3.87,3.87,0,0,1-.48,0c.06-.17.08-.38.2-.49,1.1-1,2.33-.77,3.16.66a5.71,5.71,0,0,0,1.3-3,9,9,0,0,0-1.38-7.42A9.15,9.15,0,0,0,134.25,33a28.65,28.65,0,0,0-4.67-.47l.75.51-.05.13c-.3-.08-.6-.18-.9-.25a11.79,11.79,0,0,0-12,3.41,4.79,4.79,0,0,0-1.46,3.43,3,3,0,0,0,2.89,3,8.5,8.5,0,0,0,4.37-1.25c.43-.22.85-.46,1.32-.65A4.84,4.84,0,0,1,122.29,43a28.13,28.13,0,0,1-2.94,1.17c.22.79.4,1.72.73,2.6a7.83,7.83,0,0,1,.43,4.53,4.43,4.43,0,0,0,1.56,4.43,8.19,8.19,0,0,0,5.76,2.41,5.6,5.6,0,0,0,2.27-.57A45.1,45.1,0,0,0,134,55.26a5,5,0,0,0,1.85-2.19c.14-.29.32-.57.5-.89a3.13,3.13,0,0,1-.88,2.77c-1.76,1.74-1.51,3.87-1.28,6a1.72,1.72,0,0,0,.56.85c.42.41.89.75,1.37,1.15a2.47,2.47,0,0,1-2.76-2.37,13.43,13.43,0,0,1,.1-2.1c.08-.69.25-1.38.38-2.12a14.54,14.54,0,0,1-2.61,1.42,2.38,2.38,0,0,0-1.9,2.62,1.52,1.52,0,0,1-1.74,1.65,9.92,9.92,0,0,0,1.05-1.53,9.26,9.26,0,0,0,.44-1.65,35.34,35.34,0,0,1-3.77-.41,8.26,8.26,0,0,1-5-3.56A5,5,0,0,1,119.8,51a7.06,7.06,0,0,0-.22-3.26c-.34-1.22-.59-2.46-.91-3.8-.18,0-.5-.07-.82-.14A4.19,4.19,0,0,1,115.11,38a8,8,0,0,1,3.32-3.9,12.47,12.47,0,0,1,10.35-1.83,5.27,5.27,0,0,1,1.37-.56,13,13,0,0,1,9.12,2.35,8.41,8.41,0,0,1,3.34,6.26,9.28,9.28,0,0,1-.69,5.1c-.37.77-1.1,1.36-1.5,2.11s-.46,1.64-.84,2.38a2.91,2.91,0,0,1-1.2,1.07C137.69,51.36,137.07,51.05,136.73,50.24Z"/><path class="cls-2" d="M85,85a4.16,4.16,0,0,1,.75.46,3.31,3.31,0,0,1,.6.78,61.46,61.46,0,0,1,5.47,13c.2.76.33,1.54.46,2.32a.7.7,0,0,1-.42.85A92.32,92.32,0,0,0,75.1,113.55c-.46.39-.69.38-1.09-.11A158.4,158.4,0,0,1,64,98.8c-.17-.26-.5-.6-.44-.79a2.27,2.27,0,0,1,.75-.89A74.15,74.15,0,0,1,82.71,85.66,23,23,0,0,1,85,85ZM64.43,98.29l10,14.54c2.82-2.07,5.54-4.11,8.32-6.09a51.51,51.51,0,0,1,8.88-5.11,84.14,84.14,0,0,0-6.67-15.86C80.27,87.1,68,94.55,64.43,98.29Z"/><path class="cls-2" d="M107.52,15c.53.31,1.25.49,1.57.94a27.47,27.47,0,0,1,4.35,9.31,2.2,2.2,0,0,1-.79,2.24,26.55,26.55,0,0,1-5.8,3.87c-.68.35-1.35.74-2,1.06a1.44,1.44,0,0,0-.88,1.46c0,.88-.07,1.76-.16,2.64-.11,1.14-.79,1.49-1.78.92-.8-.47-1.54-1-2.33-1.5a1.49,1.49,0,0,0-.9-.19c-1.3.16-1.62.09-2.24-1.11-1.45-2.78-2.84-5.59-4.22-8.41A2.39,2.39,0,0,1,93,23.1,45.49,45.49,0,0,1,105,15.72a11.44,11.44,0,0,1,1.52-.43c.3-.07.61-.1.91-.15Zm-4.7,21.81a2.22,2.22,0,0,0,.17-.41c.09-.9.2-1.79.25-2.69a1.55,1.55,0,0,1,.6-1.32l2.8-1.87,5.21-3.46a1.76,1.76,0,0,0,.73-2.14,34,34,0,0,0-3.89-8.33,1.25,1.25,0,0,0-1.37-.58,12.14,12.14,0,0,0-2,.55A48,48,0,0,0,93.9,23.5c-1.17.91-1.3,1.37-.64,2.74,1.28,2.7,2.68,5.33,4,8a.93.93,0,0,0,1.28.55,1.81,1.81,0,0,1,1.73.31C101.09,35.68,101.92,36.21,102.82,36.81Z"/><path class="cls-2" d="M163.44,46.49l6.21-.4c.81-.06,1.61-.17,2.42-.22.18,0,.49.17.52.31a9.9,9.9,0,0,1,.24,4.3,6.93,6.93,0,0,1-8,5.3A15,15,0,0,1,154,48.28a9.13,9.13,0,0,1-.5-9,5.34,5.34,0,0,1,6.31-2.5,1.62,1.62,0,0,1,.81.94c1,2.85,1.87,5.72,2.79,8.58Zm8.49.07-7.6.62c-1.33.11-1.46,0-1.88-1.27q-1.29-4-2.63-8.07a.82.82,0,0,0-.34-.49A4.58,4.58,0,0,0,155,38.47a7.43,7.43,0,0,0-1.56,5.43,10.34,10.34,0,0,0,2.75,6,18.41,18.41,0,0,0,3.74,3.38,13.66,13.66,0,0,0,5.54,1.8,6.05,6.05,0,0,0,5.94-3.1A10.56,10.56,0,0,0,171.93,46.56Z"/><path class="cls-2" d="M83.24,51.39a8.89,8.89,0,0,1-8.53-6.72,9.54,9.54,0,0,1,.53-7.17,7.85,7.85,0,0,1,8.47-4.23,9.64,9.64,0,0,1,7.93,7.63,6.28,6.28,0,0,1-.16,3,20.79,20.79,0,0,1-2.16,4.54A6.93,6.93,0,0,1,83.24,51.39Zm7.87-9.33c0-.33,0-.66-.09-1a8.63,8.63,0,0,0-7.08-6.93,7,7,0,0,0-8.29,5.28,9,9,0,0,0,1.91,8.15A7,7,0,0,0,83,50.3C87.19,50.41,91.08,46.42,91.11,42.06Z"/><path class="cls-2" d="M154.26,104.05a8.72,8.72,0,0,1,2.94-6.29,7.61,7.61,0,0,1,8.45-1.24c3.38,1.44,5.65,3.89,6,7.67a8.39,8.39,0,0,1-.4,3.17,11.23,11.23,0,0,1-2.57,4.41c-2.41,2.54-5.4,3-8.55,1.79-3.55-1.32-5.22-4.2-5.79-7.8C154.3,105.2,154.3,104.62,154.26,104.05Zm1.15.44a9.64,9.64,0,0,0,1.56,5.1,7.22,7.22,0,0,0,10.57,1.93,9.14,9.14,0,0,0,3.5-5.87c.63-5.18-4.62-9.52-9.43-8.91C158,97.19,155.35,100.39,155.41,104.49Z"/><path class="cls-2" d="M187.3,96.86c-.85-.08-1.71-.1-2.55-.26-4-.74-6.7-5.31-5.9-9.47a10.25,10.25,0,0,1,9.18-8,7.78,7.78,0,0,1,8.06,6c.89,3.7.19,7-2.67,9.73A8.34,8.34,0,0,1,187.3,96.86Zm1.08-.79a6.4,6.4,0,0,0,4-1.27,8,8,0,0,0,3.31-6.38c.2-3.86-1.79-7.61-6.26-8.17a8.22,8.22,0,0,0-7.59,3.26c-2.78,3.32-2.67,7.56.19,10.45C183.68,95.62,185.76,96,188.38,96.07Z"/><path class="cls-2" d="M79.77,73.08c0-.41-.13-.72-.66-.69a.62.62,0,0,1-.51-.31.71.71,0,0,1,.14-.64c.44-.31.31-.63.2-1-.28-1-.53-1.91-.73-2.87a2,2,0,0,1,1.25-2.64A21.75,21.75,0,0,1,83,63.61a2,2,0,0,1,2.6,1.44c.37,1,.68,1.94,1,2.91a2.72,2.72,0,0,1,3.12,2.81c-.85-1-1.5-2.11-3-2.39L87,69c.54,2.12,1.13,4.23,1.61,6.37a1.58,1.58,0,0,1-1.08,2.07,37.17,37.17,0,0,1-3.81,1.43c-1.08.34-1.77-.08-2.23-1.19-.16-.41-.3-.71-.86-.65s-.71-.44-.43-.88a5.31,5.31,0,0,1,.46-.53,6.13,6.13,0,0,1-1.53-1C78.69,74.2,79,73.68,79.77,73.08Zm3.61-8.8A8.53,8.53,0,0,0,80,65.42c-1.16.55-1.33.87-1,2.13s.72,2.53,1.13,3.78q.93,2.88,1.94,5.73c.33,1,.56,1.18,1.5,1a24.61,24.61,0,0,0,3.77-1.36,1.16,1.16,0,0,0,.56-1.52C87,71.84,86,68.55,85,65.26,84.79,64.43,84.42,64.25,83.38,64.28ZM80,73.75l-.19-.06c-.09.19-.31.46-.25.57a3.57,3.57,0,0,0,.66.69l.14-.11Z"/><path class="cls-2" d="M157.36,70.66a23,23,0,0,1,9.48,2.61c1.31.68,2.58,1.43,3.82,2.21a4.53,4.53,0,0,1,1.19,1.2,1.06,1.06,0,0,1,0,1.35,1.12,1.12,0,0,1-1.31.37,5.49,5.49,0,0,1-1.34-.69c-2-1.26-3.87-2.58-5.84-3.81A18.32,18.32,0,0,0,157.88,72a6.81,6.81,0,0,1-1.26-.39l-.05,0a.48.48,0,0,1,0-.83l.08,0A2.37,2.37,0,0,1,157.36,70.66Z"/><path class="cls-2" d="M105.14,44.82a8.9,8.9,0,0,1,1.37.72,21.33,21.33,0,0,1,6.62,8.64,9.29,9.29,0,0,1,.56,1.4,1,1,0,0,1-.19.84c-.36.27-.56-.1-.74-.39a22.8,22.8,0,0,0-6.14-7A16.7,16.7,0,0,0,104.73,48a1.84,1.84,0,0,1-1.2-1.6A1.66,1.66,0,0,1,105.14,44.82Z"/><path class="cls-2" d="M167.39,45c-3.34.11-2.84.3-3.76-2.14s-1.7-4.71-2.55-7.06c-.06-.19-.12-.38-.17-.57-.11-.44.07-.72.53-.67a12.91,12.91,0,0,1,2.32.38,15.57,15.57,0,0,1,8.94,6.13,14.77,14.77,0,0,1,1.24,2.32c.37.84.16,1.12-.75,1.19Zm5.9-1.21c-1.37-3.93-8.49-9.08-11.52-8.36l.12.37c.86,2.64,1.74,5.29,2.57,7.94.15.47.33.63.81.6C167.93,44.18,170.58,44,173.29,43.83Z"/><path class="cls-2" d="M161.35,65.86c.85.06,1.71.09,2.56.2a2.84,2.84,0,0,1,1.15.44,1.1,1.1,0,0,1,.52,1.25,1.08,1.08,0,0,1-1.12.77,5.64,5.64,0,0,1-1.35-.19,17.68,17.68,0,0,0-8.08-.44c-.79.16-1.56.45-2.35.62h-.07a.47.47,0,0,1-.38-.78.51.51,0,0,1,.13-.09,30.46,30.46,0,0,1,3.9-1.15C157.93,66.16,161.34,65.83,161.35,65.86Z"/><path class="cls-2" d="M105.81,51.89a11.31,11.31,0,0,1,2.21,1,24.4,24.4,0,0,1,2.66,2.43c.26.26.5.69.1,1-.16.12-.62,0-.85-.15a10,10,0,0,0-4.28-1.6,2.32,2.32,0,0,1-.7-.17,1.28,1.28,0,0,1-.83-1.47C104.25,52.31,104.79,51.9,105.81,51.89Z"/><path class="cls-2" d="M153.77,74.29a.55.55,0,0,1,.42,0c1.18.39,2.37.77,3.55,1.2a10.73,10.73,0,0,1,1.53.73A1.11,1.11,0,1,1,158.11,78c-.83-.61-1.63-1.25-2.5-1.81-.58-.37-1.26-.59-1.87-.93h0a.55.55,0,0,1,0-1Z"/><path class="cls-2" d="M126.56,40.18a.86.86,0,0,1,.36,0c1.92.8,3.87,1.54,5.74,2.44a4.84,4.84,0,0,1,2.69,4.25c0,.3.09.61.14.94h.67c-.23.28-.35.52-.53.59a.6.6,0,0,1-.52-.19,3,3,0,0,1-.26-.95,5.09,5.09,0,0,0-2.95-4.16c-1.46-.72-2.94-1.38-4.4-2.09-.36-.18-.69-.44-1-.66Z"/><path class="cls-2" d="M127.5,51.59a1.29,1.29,0,0,1,.77.12,1.86,1.86,0,0,1,.87.63,1.74,1.74,0,0,1-.15,1.4,4.48,4.48,0,0,1-3.33,2.12c-1,.17-2.45-1.34-2.32-2.38a.78.78,0,0,1,.32-.53A12.18,12.18,0,0,1,127.5,51.59Zm.8.81a1.19,1.19,0,0,0-.62,0l-3.63.91c-.09,0-.18.19-.18.3,0,.62,1.09,1.82,1.67,1.72a4,4,0,0,0,3-2C128.83,52.84,128.73,52.53,128.3,52.4Z"/><path class="cls-2" d="M110.58,59.4h-2.75a.83.83,0,0,1-1-.78.81.81,0,0,1,.92-.88,21.3,21.3,0,0,1,3.06.63.39.39,0,0,1,.14.08.55.55,0,0,1-.32,1Z"/><path class="cls-2" d="M123.27,49.85s-.14.3-.3.34a.62.62,0,0,1-.54-.22,5.62,5.62,0,0,1-.68-3.22.42.42,0,0,1,.81-.1C122.81,47.66,123,48.68,123.27,49.85Z"/><path class="cls-2" d="M127.33,47a1.77,1.77,0,0,1,.22-1.27c.09-.13.17-.23.27-.24.63,0,.48.58.53,1,.09.72.21,1.44.26,2.16v.06a.46.46,0,0,1-.8.28.33.33,0,0,1-.07-.13C127.57,48.25,127.46,47.66,127.33,47Z"/><path class="cls-2" d="M95.85,25.88c-.52-.05-.78-.29-.58-.71a2.58,2.58,0,0,1,.78-1c1.29-.91,2.58-1.82,3.94-2.62,1.63-1,3.32-1.81,5-2.69.32-.17.74-.36,1,.08s-.14.68-.46.88l-9.08,5.72C96.23,25.71,96,25.8,95.85,25.88Z"/><path class="cls-2" d="M108.51,23.83c.16.09.4.15.45.29a.72.72,0,0,1-.07.59,1.68,1.68,0,0,1-.57.44l-9.68,5.31a.92.92,0,0,1-.36.15c-.22,0-.54,0-.63-.12a.66.66,0,0,1,.06-.64A6.46,6.46,0,0,1,99,28.79c2.28-1.27,4.58-2.5,6.88-3.73.63-.34,1.29-.65,1.94-1C108.05,24,108.26,23.93,108.51,23.83Z"/><path class="cls-2" d="M97.08,27.94a.51.51,0,0,1-.45-.82,2.09,2.09,0,0,1,.66-.63c1.43-.84,2.88-1.66,4.33-2.46.33-.18.76-.2.88.22a.93.93,0,0,1-.35.79c-1.57.95-3.17,1.86-4.76,2.78C97.27,27.88,97.14,27.91,97.08,27.94Z"/><path class="cls-2" d="M79.22,39.11l.23-.49A.92.92,0,0,0,78,38.28a.18.18,0,0,1-.27-.11h0a.21.21,0,0,1,0-.17c.25-.28.54-.71.72-.68a3.45,3.45,0,0,1,1.09.64A.33.33,0,0,0,80,38l.79-.58a.3.3,0,0,0,.06-.43l-.25-.32a.33.33,0,0,0-.37-.1l0,0-.06,0a.31.31,0,0,1-.3-.51h0c.58-.61,1-.51,1.31.28l.15.43a.29.29,0,0,0,.33.19c3.31-.57,4.32.24,4,3.12,2.17.35,3.27,1.53,3.06,3.26s-1.9,3.21-3.37,3.06l1.19-.94a3,3,0,0,0,1.42-2.6,2,2,0,0,0-2.81-1.73l-.76.34a2,2,0,0,1,0-.56c.12-.37.29-.72.41-1.08.56-1.71-.85-2.72-2.34-2.23a12.48,12.48,0,0,0-2.1,1.05c-.33.18-.63.41-1,.62A.11.11,0,0,1,79.22,39.11Z"/><path class="cls-2" d="M83.27,46.37c-.06.09-.1.25-.19.29a.44.44,0,0,1-.35-.07,1.67,1.67,0,0,1-.37-.38c-1.06-1.44-2.13-2.89-3.19-4.35a2,2,0,0,1-.28-.44,2.37,2.37,0,0,1,0-.54c.19,0,.46,0,.56.15q1.86,2.43,3.69,4.87A1.71,1.71,0,0,1,83.27,46.37Z"/><path class="cls-2" d="M160.05,99.51c.33.14.5.19.65.27,2,1.22,4,2.44,5.94,3.67.66.41.71.74.3,1.36-1.1,1.62-2.19,3.24-3.32,4.84-.26.37-.48,1-1.06.76-.3-.13-.52-.66-.62-1-.64-2.62-1.24-5.25-1.86-7.87a9.58,9.58,0,0,1-.32-1.28C159.74,100,159.94,99.77,160.05,99.51Zm2.81,10.15,3.6-5.22c.25-.36,0-.49-.28-.64l-2.5-1.48-3.24-1.91C161.26,103.57,162,106.53,162.86,109.66Z"/><path class="cls-2" d="M189.06,81.57c.36.15.95.23,1,.47a3.48,3.48,0,0,1-.18,1.4l1.41.71.39-.87-.78-.66a1.09,1.09,0,0,1,1.36.18c.35.25.27.43-.66,1.6a3.51,3.51,0,0,1,1.47,2.93c-.14,1.31-1.07,1.88-2.23,2.16.62,2.19.12,3.6-1.48,4.23a3.75,3.75,0,0,1-4.37-1.6l1.47.64a3,3,0,0,0,2.72.19,2,2,0,0,0,.37-3.49,2.68,2.68,0,0,1-.41-.53,3.74,3.74,0,0,1,.66-.09,2.76,2.76,0,0,0,2.29-1.16,2.06,2.06,0,0,0-.67-2.31,7,7,0,0,0-1.13-.9,11.78,11.78,0,0,0-1.12-.57c-.17-.1-.33-.23-.57-.39.88-.24.88-.24.35-1.73Z"/><path class="cls-2" d="M183.68,90a4.16,4.16,0,0,1,.19-.5c.83-1.67,1.65-3.35,2.51-5,.13-.24.45-.37.68-.56a3,3,0,0,1-.07.91c-.72,1.58-1.48,3.14-2.23,4.7a2.9,2.9,0,0,1-.5.69.44.44,0,0,1-.41.09C183.76,90.25,183.73,90.06,183.68,90Z"/><path class="cls-2" d="M82.81,65.72c-.4.27-.62.54-.85.54s-.35-.33-.53-.51c.21-.18.4-.44.64-.5S82.44,65.47,82.81,65.72Z"/><path class="cls-2" d="M70.58,101.42c0-1.16.54-1.52,1.6-1a12,12,0,0,1,1.54.92c.36.23.55.26.66-.26.18-.87.5-1,1.31-.64a1.67,1.67,0,0,0,1.58,0,2.2,2.2,0,0,1,1.81.13,4.86,4.86,0,0,0,3.42.24c.83-.28,1.07-.47,1.11-1.41,0-1.45.14-2.92.12-4.38,0-2.06.15-4.11.16-6.17a2.25,2.25,0,0,1,.22-1c.08-.14.17-.28.35-.27a.38.38,0,0,1,.33.29,1.57,1.57,0,0,1,.16.77c-.22,2.7-.07,5.4-.11,8.1a19.86,19.86,0,0,1-.27,3.44,1.84,1.84,0,0,1-1.18,1.41,5.22,5.22,0,0,1-4.73-.11A1.7,1.7,0,0,0,77,101.5a1.53,1.53,0,0,1-1.29,0c-.31-.12-.41,0-.46.3-.17,1-.82,1.35-1.72.82-.55-.32-1.06-.72-1.59-1.08-.13-.08-.26-.22-.42-.12s-.08.28,0,.43a31.21,31.21,0,0,0,.83,3.69c.06.21.17.42.06.64a.32.32,0,0,1-.32.2c-.23,0-.34-.18-.42-.36a10.68,10.68,0,0,1-.73-2.35A11.1,11.1,0,0,1,70.58,101.42Z"/></svg>