<?xml version="1.0" encoding="UTF-8"?>
<svg version="1.1" xmlns="http://www.w3.org/2000/svg" width="514" height="514">
<path d="M0 0 C0.06890566 33.8094099 0.12164964 67.61880211 0.15319599 101.42826681 C0.1569474 105.43419296 0.16083043 109.44011898 0.16479492 113.44604492 C0.16558185 114.24343791 0.16636878 115.04083091 0.16717956 115.86238732 C0.18017706 128.71578965 0.20379913 141.56915107 0.23145839 154.42252926 C0.25967108 167.64493218 0.27620948 180.86731392 0.28226548 194.0897457 C0.28634933 202.22619059 0.2991708 210.36251978 0.3237494 218.49892899 C0.33980331 224.10434393 0.34435683 229.70970047 0.34050413 235.31513665 C0.33861252 238.5326683 0.34290174 241.74996244 0.35761642 244.96746635 C0.49434562 276.44980507 -3.77485555 305.96100022 -13 336 C-13.20786133 336.69706055 -13.41572266 337.39412109 -13.62988281 338.11230469 C-19.95868674 359.04604076 -30.60333956 380.03382544 -43 398 C-43.47147461 398.69480469 -43.94294922 399.38960938 -44.42871094 400.10546875 C-50.14727959 408.51403423 -56.09586656 416.58441712 -62.7109375 424.3125 C-64.83566366 426.80705905 -66.86185644 429.35272308 -68.875 431.9375 C-76.13069616 441.04383931 -84.03041732 449.56852266 -93 457 C-93.94101562 457.82886719 -94.88203125 458.65773438 -95.8515625 459.51171875 C-103.76973156 466.45810693 -112.0769125 472.4145053 -121 478 C-121.6492041 478.4110498 -122.2984082 478.82209961 -122.96728516 479.24560547 C-155.43759143 499.65209734 -195.43203124 514 -234 514 C-234 375.4 -234 236.8 -234 94 C-223.86219663 88.36788701 -223.86219663 88.36788701 -218.55859375 86.09765625 C-217.40601074 85.60289795 -216.25342773 85.10813965 -215.06591797 84.59838867 C-213.86854004 84.09154541 -212.67116211 83.58470215 -211.4375 83.0625 C-210.50650482 82.66606796 -210.50650482 82.66606796 -209.55670166 82.2616272 C-201.34085676 78.76357883 -193.0977322 75.40074647 -184.703125 72.35546875 C-181.24983656 71.09144862 -177.8324797 69.76078084 -174.41430664 68.40600586 C-167.08922807 65.5070652 -159.72893075 62.85196212 -152.24047852 60.40795898 C-141.40699705 56.8540387 -130.71102375 52.90419896 -120 49 C-119.13165527 48.68385742 -118.26331055 48.36771484 -117.36865234 48.04199219 C-107.42438286 44.41616769 -97.51841874 40.69486686 -87.6328125 36.91210938 C-82.99787937 35.13871371 -78.35714056 33.38428462 -73.703125 31.66162109 C-67.3649887 29.31175706 -61.07257132 26.86347234 -54.8125 24.3125 C-53.75144043 23.88408813 -53.75144043 23.88408813 -52.66894531 23.44702148 C-48.89947532 21.89459264 -45.47085143 20.12501108 -42 18 C-40.49371795 17.3604175 -38.97198005 16.75611443 -37.4375 16.1875 C-31.42256122 13.84194042 -25.74339681 10.93751538 -20 8 C-17.48177887 6.72394179 -14.96003979 5.45499434 -12.4375 4.1875 C-11.28121094 3.60355469 -10.12492188 3.01960937 -8.93359375 2.41796875 C-5.72810212 0.86857666 -3.57371774 0 0 0 Z " fill-opacity="0.5" fill="#fff" transform="translate(514,0)" />
<path d="M0 0 C0 138.6 0 277.2 0 420 C-10.13780337 425.63211299 -10.13780337 425.63211299 -15.44140625 427.90234375 C-16.59398926 428.39710205 -17.74657227 428.89186035 -18.93408203 429.40161133 C-20.13145996 429.90845459 -21.32883789 430.41529785 -22.5625 430.9375 C-23.18316345 431.20178802 -23.8038269 431.46607605 -24.44329834 431.7383728 C-32.65914324 435.23642117 -40.9022678 438.59925353 -49.296875 441.64453125 C-52.75016344 442.90855138 -56.1675203 444.23921916 -59.58569336 445.59399414 C-66.91077193 448.4929348 -74.27106925 451.14803788 -81.75952148 453.59204102 C-92.59300295 457.1459613 -103.28897625 461.09580104 -114 465 C-114.86834473 465.31614258 -115.73668945 465.63228516 -116.63134766 465.95800781 C-126.57561714 469.58383231 -136.48158126 473.30513314 -146.3671875 477.08789062 C-151.00212063 478.86128629 -155.64285944 480.61571538 -160.296875 482.33837891 C-166.6350113 484.68824294 -172.92742868 487.13652766 -179.1875 489.6875 C-179.89487305 489.97310791 -180.60224609 490.25871582 -181.33105469 490.55297852 C-185.10052468 492.10540736 -188.52914857 493.87498892 -192 496 C-193.50628205 496.6395825 -195.02801995 497.24388557 -196.5625 497.8125 C-203.20165045 500.40147448 -209.48486937 503.65066374 -215.80175781 506.9375 C-217.65628386 507.90220364 -219.51554311 508.85734351 -221.375 509.8125 C-222.49648437 510.39644531 -223.61796875 510.98039062 -224.7734375 511.58203125 C-227.93059702 512.96949966 -230.6106848 513.50174524 -234 514 C-234.06890566 480.1905901 -234.12164964 446.38119789 -234.15319599 412.57173319 C-234.1569474 408.56580704 -234.16083043 404.55988102 -234.16479492 400.55395508 C-234.16558185 399.75656209 -234.16636878 398.95916909 -234.16717956 398.13761268 C-234.18017706 385.28421035 -234.20379913 372.43084893 -234.23145839 359.57747074 C-234.25967108 346.35506782 -234.27620948 333.13268608 -234.28226548 319.9102543 C-234.28634933 311.77380941 -234.2991708 303.63748022 -234.3237494 295.50107101 C-234.33980331 289.89565607 -234.34435683 284.29029953 -234.34050413 278.68486335 C-234.33861252 275.4673317 -234.34290174 272.25003756 -234.35761642 269.03253365 C-234.49434562 237.55019493 -230.22514445 208.03899978 -221 178 C-220.79213867 177.30293945 -220.58427734 176.60587891 -220.37011719 175.88769531 C-214.04131326 154.95395924 -203.39666044 133.96617456 -191 116 C-190.52852539 115.30519531 -190.05705078 114.61039062 -189.57128906 113.89453125 C-183.85272041 105.48596577 -177.90413344 97.41558288 -171.2890625 89.6875 C-169.16433634 87.19294095 -167.13814356 84.64727692 -165.125 82.0625 C-157.86930384 72.95616069 -149.96958268 64.43147734 -141 57 C-140.05898437 56.17113281 -139.11796875 55.34226563 -138.1484375 54.48828125 C-130.23026844 47.54189307 -121.9230875 41.5854947 -113 36 C-112.02619385 35.38342529 -112.02619385 35.38342529 -111.03271484 34.75439453 C-78.56240857 14.34790266 -38.56796876 0 0 0 Z " fill-opacity="0.5" fill="#fff" transform="translate(234,0)"/>
<path d="M0 0 C3.3 0 6.6 0 10 0 C10 138.6 10 277.2 10 420 C-0.13780337 425.63211299 -0.13780337 425.63211299 -5.44140625 427.90234375 C-6.59398926 428.39710205 -7.74657227 428.89186035 -8.93408203 429.40161133 C-10.13145996 429.90845459 -11.32883789 430.41529785 -12.5625 430.9375 C-13.18316345 431.20178802 -13.8038269 431.46607605 -14.44329834 431.7383728 C-22.65914324 435.23642117 -30.9022678 438.59925353 -39.296875 441.64453125 C-42.75016344 442.90855138 -46.1675203 444.23921916 -49.58569336 445.59399414 C-56.91077193 448.4929348 -64.27106925 451.14803788 -71.75952148 453.59204102 C-82.59300295 457.1459613 -93.28897625 461.09580104 -104 465 C-104.86834473 465.31614258 -105.73668945 465.63228516 -106.63134766 465.95800781 C-116.57561714 469.58383231 -126.48158126 473.30513314 -136.3671875 477.08789062 C-141.00212063 478.86128629 -145.64285944 480.61571538 -150.296875 482.33837891 C-156.6350113 484.68824294 -162.92742868 487.13652766 -169.1875 489.6875 C-169.89487305 489.97310791 -170.60224609 490.25871582 -171.33105469 490.55297852 C-175.10052468 492.10540736 -178.52914857 493.87498892 -182 496 C-183.50628205 496.6395825 -185.02801995 497.24388557 -186.5625 497.8125 C-193.20165045 500.40147448 -199.48486937 503.65066374 -205.80175781 506.9375 C-207.65628386 507.90220364 -209.51554311 508.85734351 -211.375 509.8125 C-212.49648437 510.39644531 -213.61796875 510.98039062 -214.7734375 511.58203125 C-217.93059702 512.96949966 -220.6106848 513.50174524 -224 514 C-224.06890566 480.1905901 -224.12164964 446.38119789 -224.15319599 412.57173319 C-224.1569474 408.56580704 -224.16083043 404.55988102 -224.16479492 400.55395508 C-224.16558185 399.75656209 -224.16636878 398.95916909 -224.16717956 398.13761268 C-224.18017706 385.28421035 -224.20379913 372.43084893 -224.23145839 359.57747074 C-224.25967108 346.35506782 -224.27620948 333.13268608 -224.28226548 319.9102543 C-224.28634933 311.77380941 -224.2991708 303.63748022 -224.3237494 295.50107101 C-224.33980331 289.89565607 -224.34435683 284.29029953 -224.34050413 278.68486335 C-224.33861252 275.4673317 -224.34290174 272.25003756 -224.35761642 269.03253365 C-224.49434562 237.55019493 -220.22514445 208.03899978 -211 178 C-210.79213867 177.30293945 -210.58427734 176.60587891 -210.37011719 175.88769531 C-204.04131326 154.95395924 -193.39666044 133.96617456 -181 116 C-180.52852539 115.30519531 -180.05705078 114.61039062 -179.57128906 113.89453125 C-173.85272041 105.48596577 -167.90413344 97.41558288 -161.2890625 89.6875 C-159.16433634 87.19294095 -157.13814356 84.64727692 -155.125 82.0625 C-150.1022958 75.72727844 -144.5348125 69.88535062 -139 64 C-138.34 64.33 -137.68 64.66 -137 65 C-137.60303955 65.62491333 -137.60303955 65.62491333 -138.21826172 66.26245117 C-146.74707309 75.13557832 -154.72202141 84.07195815 -162 94 C-162.69480469 94.886875 -163.38960937 95.77375 -164.10546875 96.6875 C-169.92105258 104.24663411 -173.96716888 112.40841361 -178 121 C-178.49757812 122.04027344 -178.99515625 123.08054687 -179.5078125 124.15234375 C-183.45129906 132.57062495 -186.1120215 140.50140274 -187.47265625 149.71484375 C-187.76158556 151.51476636 -188.0743003 153.31355753 -188.49462891 155.08740234 C-190.24458848 162.6497833 -190.29661039 170.01267456 -190.25 177.75 C-190.25773437 179.0184375 -190.26546875 180.286875 -190.2734375 181.59375 C-190.20656476 214.36139375 -179.17097273 245.27379428 -159 271 C-158.57686523 271.54269531 -158.15373047 272.08539063 -157.71777344 272.64453125 C-153.22212736 278.35696705 -148.60038997 283.72921026 -142.9765625 288.3671875 C-140.84480367 290.12820566 -138.83986008 291.99508429 -136.8125 293.875 C-117.71079587 310.76766351 -94.50582242 320.62065595 -70.5625 328.4375 C-51.91509349 334.53190483 -35.47818135 341.51265302 -20.375 354.25 C-19.75786133 354.76981445 -19.14072266 355.28962891 -18.50488281 355.82519531 C-14.12405134 359.62784598 -14.12405134 359.62784598 -13 363 C-12.01 363.33 -11.02 363.66 -10 364 C-4.55409683 370.54152866 -0.31382506 377.91884924 3.5 385.5 C4.00696411 386.5046228 4.00696411 386.5046228 4.52416992 387.52954102 C6.27320141 391.12027688 7.20440247 394.02201236 8 398 C8.495 201.485 8.495 201.485 9 1 C6.03 1 3.06 1 0 1 C0 0.67 0 0.34 0 0 Z " fill="#fff" transform="translate(224,0)"/>
<path d="M0 0 C0.06890566 33.8094099 0.12164964 67.61880211 0.15319599 101.42826681 C0.1569474 105.43419296 0.16083043 109.44011898 0.16479492 113.44604492 C0.16558185 114.24343791 0.16636878 115.04083091 0.16717956 115.86238732 C0.18017706 128.71578965 0.20379913 141.56915107 0.23145839 154.42252926 C0.25967108 167.64493218 0.27620948 180.86731392 0.28226548 194.0897457 C0.28634933 202.22619059 0.2991708 210.36251978 0.3237494 218.49892899 C0.33980331 224.10434393 0.34435683 229.70970047 0.34050413 235.31513665 C0.33861252 238.5326683 0.34290174 241.74996244 0.35761642 244.96746635 C0.49434562 276.44980507 -3.77485555 305.96100022 -13 336 C-13.20786133 336.69706055 -13.41572266 337.39412109 -13.62988281 338.11230469 C-19.95868674 359.04604076 -30.60333956 380.03382544 -43 398 C-43.47147461 398.69480469 -43.94294922 399.38960938 -44.42871094 400.10546875 C-50.14727959 408.51403423 -56.09586656 416.58441712 -62.7109375 424.3125 C-64.83566366 426.80705905 -66.86185644 429.35272308 -68.875 431.9375 C-73.8977042 438.27272156 -79.4651875 444.11464938 -85 450 C-85.66 449.67 -86.32 449.34 -87 449 C-86.59797363 448.58339111 -86.19594727 448.16678223 -85.78173828 447.73754883 C-77.25292691 438.86442168 -69.27797859 429.92804185 -62 420 C-61.30519531 419.113125 -60.61039063 418.22625 -59.89453125 417.3125 C-42.60471473 394.83908278 -33.56536719 365.18975772 -33.73925781 337.11645508 C-33.74997349 335.06756903 -33.7392929 333.01956281 -33.7265625 330.97070312 C-33.71323426 318.26184897 -35.23130555 306.14013868 -39 294 C-39.17982422 293.37706055 -39.35964844 292.75412109 -39.54492188 292.11230469 C-43.83266191 277.30202885 -50.00618238 261.91246194 -60 250 C-60.48726562 249.175 -60.97453125 248.35 -61.4765625 247.5 C-63.18884921 244.69009361 -65.1540512 242.42560962 -67.375 240 C-68.50035156 238.7625 -68.50035156 238.7625 -69.6484375 237.5 C-72.04975659 234.94710263 -74.51795679 232.47423804 -77 230 C-77.70898438 229.24460938 -78.41796875 228.48921875 -79.1484375 227.7109375 C-100.30626023 205.51378313 -128.62099316 193.42272432 -157.31054688 184.23193359 C-173.07937033 179.15332056 -188.32434334 172.90643956 -201 162 C-201.91523438 161.21753906 -202.83046875 160.43507812 -203.7734375 159.62890625 C-208.97508618 155.07564235 -208.97508618 155.07564235 -211 153 C-211 152.34 -211 151.68 -211 151 C-211.99 150.67 -212.98 150.34 -214 150 C-222.2605591 140.61220042 -226.97793694 129.29964189 -232 118 C-232.33 248.68 -232.66 379.36 -233 514 C-233.33 514 -233.66 514 -234 514 C-234 375.4 -234 236.8 -234 94 C-223.86219663 88.36788701 -223.86219663 88.36788701 -218.55859375 86.09765625 C-217.40601074 85.60289795 -216.25342773 85.10813965 -215.06591797 84.59838867 C-213.86854004 84.09154541 -212.67116211 83.58470215 -211.4375 83.0625 C-210.50650482 82.66606796 -210.50650482 82.66606796 -209.55670166 82.2616272 C-201.34085676 78.76357883 -193.0977322 75.40074647 -184.703125 72.35546875 C-181.24983656 71.09144862 -177.8324797 69.76078084 -174.41430664 68.40600586 C-167.08922807 65.5070652 -159.72893075 62.85196212 -152.24047852 60.40795898 C-141.40699705 56.8540387 -130.71102375 52.90419896 -120 49 C-119.13165527 48.68385742 -118.26331055 48.36771484 -117.36865234 48.04199219 C-107.42438286 44.41616769 -97.51841874 40.69486686 -87.6328125 36.91210938 C-82.99787937 35.13871371 -78.35714056 33.38428462 -73.703125 31.66162109 C-67.3649887 29.31175706 -61.07257132 26.86347234 -54.8125 24.3125 C-53.75144043 23.88408813 -53.75144043 23.88408813 -52.66894531 23.44702148 C-48.89947532 21.89459264 -45.47085143 20.12501108 -42 18 C-40.49371795 17.3604175 -38.97198005 16.75611443 -37.4375 16.1875 C-31.42256122 13.84194042 -25.74339681 10.93751538 -20 8 C-17.48177887 6.72394179 -14.96003979 5.45499434 -12.4375 4.1875 C-11.28121094 3.60355469 -10.12492188 3.01960937 -8.93359375 2.41796875 C-5.72810212 0.86857666 -3.57371774 0 0 0 Z " fill="#fff" transform="translate(514,0)"/>
<path d="M0 0 C0.66 0.33 1.32 0.66 2 1 C1.59797363 1.41660889 1.19594727 1.83321777 0.78173828 2.26245117 C-7.74707309 11.13557832 -15.72202141 20.07195815 -23 30 C-23.69480469 30.886875 -24.38960937 31.77375 -25.10546875 32.6875 C-30.91414295 40.23765293 -34.95373441 48.4232083 -39 57 C-39.99 57 -40.98 57 -42 57 C-42.33 57.99 -42.66 58.98 -43 60 C-44.87617698 61.84499398 -46.92737609 63.3683599 -49 65 C-41.50004563 44.83265859 -23.2469155 25.78623741 -9 10 C-8.20207031 9.11054687 -7.40414062 8.22109375 -6.58203125 7.3046875 C-4.39169049 4.86644771 -2.19754264 2.43174786 0 0 Z " fill="#B6B7B6" transform="translate(85,64)"/>
<path d="M0 0 C0.33 0 0.66 0 1 0 C1 7.26 1 14.52 1 22 C-2.28103248 17.07845128 -3.17669602 11.42957028 -2.75 5.5625 C-2 3 -2 3 0 0 Z " fill="#717170" transform="translate(232,379)"/>
<path d="M0 0 C3.21461619 4.82192428 4.3230694 8.01852399 3.625 13.8125 C3.51414062 14.78832031 3.40328125 15.76414063 3.2890625 16.76953125 C3.19367188 17.50558594 3.09828125 18.24164063 3 19 C0.43238452 16.38521048 0.0043655 15.05471424 -0.29296875 11.328125 C-0.27316751 9.96843965 -0.23759202 8.6089066 -0.1875 7.25 C-0.17396484 6.55261719 -0.16042969 5.85523437 -0.14648438 5.13671875 C-0.1112945 3.42414459 -0.05749155 1.71197059 0 0 Z " fill="#70706F" transform="translate(281,115)"/>
<path d="M0 0 C1.39861681 4.19585044 -0.28942826 6.96392304 -1.875 10.875 C-4.44853682 17.28283104 -4.44853682 17.28283104 -6 24 C-6.99 24 -7.98 24 -9 24 C-7.87942681 20.74845669 -6.75277056 17.49905328 -5.625 14.25 C-5.30789062 13.32960937 -4.99078125 12.40921875 -4.6640625 11.4609375 C-4.3546875 10.57148438 -4.0453125 9.68203125 -3.7265625 8.765625 C-3.44377441 7.94868164 -3.16098633 7.13173828 -2.86962891 6.29003906 C-2.04060935 4.10693871 -1.08327115 2.06693116 0 0 Z " fill="#BABBBB" transform="translate(21,157)"/>
<path d="M0 0 C0.66 0.33 1.32 0.66 2 1 C0.35 4.3 -1.3 7.6 -3 11 C-3.66 10.34 -4.32 9.68 -5 9 C-4.73441476 5.14901402 -2.43956652 2.83304499 0 0 Z " fill="#A8AAA9" transform="translate(52,104)"/>
<path d="M0 0 C1 3 1 3 0.375 5.625 C-1 8 -1 8 -3.625 8.8125 C-4.800625 8.9053125 -4.800625 8.9053125 -6 9 C-4 6 -2 3 0 0 Z " fill="#707070" transform="translate(60,95)"/>
<path d="M0 0 C0.99 0.33 1.98 0.66 3 1 C0.48169253 4.12270126 -0.7261549 4.94523098 -4.75 5.75 C-6.35875 5.87375 -6.35875 5.87375 -8 6 C-5.63055987 3.38114512 -3.16266898 1.58133449 0 0 Z " fill="#909391" transform="translate(138,26)"/>
</svg>
